<svg width="98" height="83" viewBox="0 0 98 83" fill="none" xmlns="http://www.w3.org/2000/svg">
<g filter="url(#filter0_d_3_3)">
<path d="M33.1384 0.0671969C31.7254 0.316073 30.6593 0.781919 29.4494 1.69447C28.468 2.42833 27.7657 3.17496 27.0888 4.18961C23.053 10.2775 24.4152 20.3219 30.0755 26.078C30.8455 26.8629 32.1823 27.8967 33.0961 28.4136C36.0913 30.1174 39.4587 30.2068 42.1577 28.6561C44.9245 27.0607 46.8197 23.9849 47.5389 19.9199C47.7166 18.8733 47.7504 15.6315 47.5812 14.5595C46.8874 10.0797 45.1191 6.37207 42.3523 3.57061C41.6585 2.87503 40.2963 1.82848 39.4418 1.3371C38.6465 0.884022 37.1404 0.296929 36.3535 0.137393C35.6513 -0.00938048 33.7983 -0.0476692 33.1384 0.0671969Z" fill="black"/>
<path d="M66.3983 1.35625C63.767 1.74552 61.0172 3.26431 58.7412 5.57439C55.8137 8.54176 53.8338 12.4664 53.0893 16.793C52.8524 18.1714 52.8778 21.2472 53.1316 22.498C53.7239 25.3505 54.9845 27.5329 56.8713 28.9496C58.4873 30.1749 60.518 30.7428 62.5824 30.5578C67.4982 30.0983 72.3463 26.0524 74.9354 20.2453C77.0844 15.4273 77.3129 10.3541 75.553 6.48694C73.8355 2.7155 70.3496 0.762779 66.3983 1.35625Z" fill="black"/>
<path d="M11.8169 22.1853C8.3564 22.6001 5.75043 24.706 4.57437 28.0498C3.90595 29.9707 3.81288 32.619 4.33746 34.9482C5.54737 40.3724 9.71014 45.3563 14.6344 47.2835C17.1558 48.2663 19.6686 48.4386 21.8262 47.7621C25.0075 46.7666 27.0973 44.1885 27.7827 40.4043C27.918 39.6449 27.918 37.3923 27.7742 36.5116C26.6743 29.4793 20.9293 23.3084 14.5413 22.281C13.7883 22.1598 12.4515 22.1151 11.8169 22.1853Z" fill="black"/>
<path d="M83.5232 27.3543C80.4772 27.8456 77.4905 29.4601 75.0115 31.9617C72.3209 34.6802 70.5103 38.2282 69.9857 41.8019C69.8503 42.7335 69.8757 44.7373 70.028 45.6371C71.0602 51.6867 76.5091 54.5903 82.6771 52.3951C85.9853 51.2145 88.9805 48.7832 91.1211 45.5478C95.1823 39.4216 94.92 32.2424 90.5034 28.9177C88.642 27.5138 86.0784 26.9395 83.5232 27.3543Z" fill="black"/>
<path d="M46.7605 38.7068C41.1594 39.4598 34.0945 43.895 27.8334 50.5827C22.9346 55.8219 19.4825 61.4631 18.4503 65.9301C18.2049 67.0022 18.1795 68.9166 18.3995 69.6505C18.7464 70.7928 19.3302 71.5458 20.464 72.3434C22.3592 73.6644 24.6352 74.4429 27.4866 74.7429C28.9672 74.896 31.9624 74.8386 33.8661 74.6216C36.4128 74.3217 38.5619 73.9324 43.3762 72.8859C48.0297 71.8776 49.3326 71.667 50.6187 71.7308C52.2517 71.8138 53.4785 72.1137 56.9982 73.2815C59.5196 74.1175 60.9241 74.5131 62.1255 74.7365C66.6098 75.5533 70.3834 74.4876 74.267 71.3096C75.4261 70.3652 75.7815 69.9057 76.1453 68.9038C76.3483 68.3295 76.3653 68.2019 76.3653 66.8554C76.3653 65.6365 76.3399 65.2919 76.1707 64.59C75.1723 60.3336 72.2025 55.1901 67.9128 50.2955C62.8109 44.4757 56.8205 40.2831 51.8201 39.0387C50.0011 38.5856 48.4527 38.4835 46.7605 38.7068Z" fill="black"/>
</g>
<defs>
<filter id="filter0_d_3_3" x="0" y="0" width="98" height="83" filterUnits="userSpaceOnUse" color-interpolation-filters="sRGB">
<feFlood flood-opacity="0" result="BackgroundImageFix"/>
<feColorMatrix in="SourceAlpha" type="matrix" values="0 0 0 0 0 0 0 0 0 0 0 0 0 0 0 0 0 0 127 0" result="hardAlpha"/>
<feOffset dy="4"/>
<feGaussianBlur stdDeviation="2"/>
<feComposite in2="hardAlpha" operator="out"/>
<feColorMatrix type="matrix" values="0 0 0 0 0 0 0 0 0 0 0 0 0 0 0 0 0 0 0.25 0"/>
<feBlend mode="normal" in2="BackgroundImageFix" result="effect1_dropShadow_3_3"/>
<feBlend mode="normal" in="SourceGraphic" in2="effect1_dropShadow_3_3" result="shape"/>
</filter>
</defs>
</svg>
